<svg width="72" height="72" viewBox="687 319 72 72" xmlns="http://www.w3.org/2000/svg"><g fill="none" fill-rule="evenodd"><path d="M687 319h72v72h-72"/><path d="M739 371c0 4.42-3.58 8-8 8s-8-3.58-8-8 3.58-8 8-8c1.9 0 3.63.66 5 1.75V340.7c0-1.1.87-2.22 1.94-2.5l8.12-2c1.08-.28 1.94.4 1.94 1.5v5c0 1.1-.87 2.22-1.94 2.5l-7.06 1.75V371zm-40-30.5c0-.83.67-1.5 1.5-1.5h29c.83 0 1.5.67 1.5 1.5s-.67 1.5-1.5 1.5h-29c-.83 0-1.5-.67-1.5-1.5zm0 9c0-.83.67-1.5 1.5-1.5h29c.83 0 1.5.67 1.5 1.5s-.67 1.5-1.5 1.5h-29c-.83 0-1.5-.67-1.5-1.5zm0 9c0-.83.67-1.5 1.5-1.5h21c.83 0 1.5.67 1.5 1.5s-.67 1.5-1.5 1.5h-21c-.83 0-1.5-.67-1.5-1.5z" fill="#6F98C7"/></g></svg>